<svg xmlns="http://www.w3.org/2000/svg" viewBox="0 0 480 360" role="img" aria-label="A discreet chrome mini V-brake with an electric-blue cable">
  <defs>
    <linearGradient id="bg" x1="0" y1="0" x2="1" y2="1">
      <stop offset="0" stop-color="#f7f6f0"/><stop offset="1" stop-color="#eae8dc"/>
    </linearGradient>
    <linearGradient id="chrome" x1="0" y1="0" x2="0" y2="1">
      <stop offset="0" stop-color="#f4f6f8"/><stop offset="0.35" stop-color="#c3ccd2"/>
      <stop offset="0.55" stop-color="#8b969d"/><stop offset="0.75" stop-color="#c3ccd2"/>
      <stop offset="1" stop-color="#e7ecef"/>
    </linearGradient>
  </defs>
  <rect width="480" height="360" fill="url(#bg)"/><rect x="12" y="12" width="456" height="336" fill="none" stroke="#c9c6b8" stroke-width="1.4" stroke-dasharray="2 6" rx="10"/><text x="26" y="36" font-family="Space Mono, ui-monospace, monospace" font-size="11" letter-spacing="1.5" fill="#9aa0a2">08 · BRAKES</text><text x="26" y="338" font-family="Space Mono, ui-monospace, monospace" font-size="13" fill="#181a1c">discreet chrome mini-V — blue cable</text><g fill="none" stroke="#181a1c" stroke-width="3" stroke-linecap="round" stroke-linejoin="round"><path d="M60 300 A230 230 0 0 1 420 300" stroke="url(#chrome)" stroke-width="6"/><path d="M60 300 A215 215 0 0 1 420 300" stroke="#181a1c" stroke-width="3"/><circle cx="170" cy="252" r="6" fill="#181a1c" stroke="none"/><circle cx="310" cy="252" r="6" fill="#181a1c" stroke="none"/><path d="M170 252 L182 150" stroke="url(#chrome)" stroke-width="8"/><path d="M310 252 L298 150" stroke="url(#chrome)" stroke-width="8"/><path d="M182 150 C210 118 270 118 298 150" stroke="#0a63ff" stroke-width="7"/><path d="M240 132 L240 96" stroke="#0a63ff" stroke-width="6"/><rect x="162" y="256" width="18" height="24" rx="3" fill="#d9694a" stroke="none"/><rect x="300" y="256" width="18" height="24" rx="3" fill="#d9694a" stroke="none"/><circle cx="182" cy="150" r="5" fill="#0a63ff" stroke="#fff" stroke-width="1.5"/><line x1="179" y1="150" x2="185" y2="150" stroke="#fff" stroke-width="1.6"/><circle cx="298" cy="150" r="5" fill="#0a63ff" stroke="#fff" stroke-width="1.5"/><line x1="295" y1="150" x2="301" y2="150" stroke="#fff" stroke-width="1.6"/></g></svg>
