<svg xmlns="http://www.w3.org/2000/svg" viewBox="0 0 480 360" role="img" aria-label="A cantilever brake over a wheel rim">
  <defs>
    <linearGradient id="bg" x1="0" y1="0" x2="1" y2="1">
      <stop offset="0" stop-color="#f7f6f0"/>
      <stop offset="1" stop-color="#eae8dc"/>
    </linearGradient>
  </defs>
  <rect width="480" height="360" fill="url(#bg)"/>
  <rect x="14" y="14" width="452" height="332" fill="none" stroke="#c9c6b8" stroke-width="1.5" stroke-dasharray="2 6" rx="10"/>
  <text x="30" y="42" font-family="'Space Mono', ui-monospace, monospace" font-size="12" letter-spacing="2" fill="#9aa0a2">08 · BRAKES</text>
  <g fill="none" stroke="#181a1c" stroke-width="3" stroke-linecap="round" stroke-linejoin="round">

    <path d="M40 300 A230 230 0 0 1 440 300" stroke="#9aa0a2" stroke-width="6"/>
    <path d="M40 300 A215 215 0 0 1 440 300" stroke="#181a1c" stroke-width="3"/>
    <circle cx="150" cy="235" r="6" fill="#181a1c" stroke="none"/>
    <circle cx="330" cy="235" r="6" fill="#181a1c" stroke="none"/>
    <path d="M150 235 L165 165" stroke="#1f43df" stroke-width="7"/>
    <path d="M330 235 L315 165" stroke="#1f43df" stroke-width="7"/>
    <path d="M165 165 L315 165" stroke="#181a1c" stroke-width="4"/>
    <path d="M240 165 L240 120" stroke="#181a1c" stroke-width="4"/>
    <rect x="140" y="240" width="18" height="26" rx="3" fill="#d9694a" stroke="none"/>
    <rect x="322" y="240" width="18" height="26" rx="3" fill="#d9694a" stroke="none"/>

  </g>
  <text x="30" y="334" font-family="'Space Mono', ui-monospace, monospace" font-size="15" fill="#181a1c">cantilever — Kool-Stop salmon pads</text>
</svg>
