<svg xmlns="http://www.w3.org/2000/svg" viewBox="0 0 480 360" role="img" aria-label="Side view of a steel diamond frame with chrome finish">
  <defs>
    <linearGradient id="bg" x1="0" y1="0" x2="1" y2="1">
      <stop offset="0" stop-color="#f7f6f0"/><stop offset="1" stop-color="#eae8dc"/>
    </linearGradient>
    <linearGradient id="chrome" x1="0" y1="0" x2="0" y2="1">
      <stop offset="0" stop-color="#f4f6f8"/><stop offset="0.35" stop-color="#c3ccd2"/>
      <stop offset="0.55" stop-color="#8b969d"/><stop offset="0.75" stop-color="#c3ccd2"/>
      <stop offset="1" stop-color="#e7ecef"/>
    </linearGradient>
  </defs>
  <rect width="480" height="360" fill="url(#bg)"/><rect x="12" y="12" width="456" height="336" fill="none" stroke="#c9c6b8" stroke-width="1.4" stroke-dasharray="2 6" rx="10"/><text x="26" y="36" font-family="Space Mono, ui-monospace, monospace" font-size="11" letter-spacing="1.5" fill="#9aa0a2">00 · FRAME &amp; FINISH</text><text x="26" y="338" font-family="Space Mono, ui-monospace, monospace" font-size="13" fill="#181a1c">raw steel, sealed — blue bolt accents</text><g fill="none" stroke="#181a1c" stroke-width="3" stroke-linecap="round" stroke-linejoin="round"><circle cx="120" cy="250" r="70" stroke="#181a1c" stroke-width="6"/><circle cx="120" cy="250" r="56" stroke="url(#chrome)" stroke-width="4"/><circle cx="120" cy="250" r="4" fill="#9aa0a2" stroke="none"/><line x1="120" y1="250" x2="175.0" y2="250.0" stroke="#9aa0a2" stroke-width="1.3"/><line x1="120" y1="250" x2="167.6" y2="277.5" stroke="#9aa0a2" stroke-width="1.3"/><line x1="120" y1="250" x2="147.5" y2="297.6" stroke="#9aa0a2" stroke-width="1.3"/><line x1="120" y1="250" x2="120.0" y2="305.0" stroke="#9aa0a2" stroke-width="1.3"/><line x1="120" y1="250" x2="92.5" y2="297.6" stroke="#9aa0a2" stroke-width="1.3"/><line x1="120" y1="250" x2="72.4" y2="277.5" stroke="#9aa0a2" stroke-width="1.3"/><line x1="120" y1="250" x2="65.0" y2="250.0" stroke="#9aa0a2" stroke-width="1.3"/><line x1="120" y1="250" x2="72.4" y2="222.5" stroke="#9aa0a2" stroke-width="1.3"/><line x1="120" y1="250" x2="92.5" y2="202.4" stroke="#9aa0a2" stroke-width="1.3"/><line x1="120" y1="250" x2="120.0" y2="195.0" stroke="#9aa0a2" stroke-width="1.3"/><line x1="120" y1="250" x2="147.5" y2="202.4" stroke="#9aa0a2" stroke-width="1.3"/><line x1="120" y1="250" x2="167.6" y2="222.5" stroke="#9aa0a2" stroke-width="1.3"/><circle cx="360" cy="250" r="70" stroke="#181a1c" stroke-width="6"/><circle cx="360" cy="250" r="56" stroke="url(#chrome)" stroke-width="4"/><circle cx="360" cy="250" r="4" fill="#9aa0a2" stroke="none"/><line x1="360" y1="250" x2="415.0" y2="250.0" stroke="#9aa0a2" stroke-width="1.3"/><line x1="360" y1="250" x2="407.6" y2="277.5" stroke="#9aa0a2" stroke-width="1.3"/><line x1="360" y1="250" x2="387.5" y2="297.6" stroke="#9aa0a2" stroke-width="1.3"/><line x1="360" y1="250" x2="360.0" y2="305.0" stroke="#9aa0a2" stroke-width="1.3"/><line x1="360" y1="250" x2="332.5" y2="297.6" stroke="#9aa0a2" stroke-width="1.3"/><line x1="360" y1="250" x2="312.4" y2="277.5" stroke="#9aa0a2" stroke-width="1.3"/><line x1="360" y1="250" x2="305.0" y2="250.0" stroke="#9aa0a2" stroke-width="1.3"/><line x1="360" y1="250" x2="312.4" y2="222.5" stroke="#9aa0a2" stroke-width="1.3"/><line x1="360" y1="250" x2="332.5" y2="202.4" stroke="#9aa0a2" stroke-width="1.3"/><line x1="360" y1="250" x2="360.0" y2="195.0" stroke="#9aa0a2" stroke-width="1.3"/><line x1="360" y1="250" x2="387.5" y2="202.4" stroke="#9aa0a2" stroke-width="1.3"/><line x1="360" y1="250" x2="407.6" y2="222.5" stroke="#9aa0a2" stroke-width="1.3"/><path d="M120 250 L200 250 L250 150 L120 250" stroke="url(#chrome)" stroke-width="6"/><path d="M200 250 L250 150 L330 150 M250 150 L360 250 M200 250 L360 250" stroke="url(#chrome)" stroke-width="6"/><path d="M330 150 L345 100" stroke="url(#chrome)" stroke-width="6"/><path d="M345 100 L318 92 M345 100 L372 108" stroke="#0a63ff" stroke-width="5"/><path d="M360 250 L345 100" stroke="url(#chrome)" stroke-width="5"/><path d="M250 150 L242 118 M242 118 L228 116 L258 116" stroke="#5f6b73" stroke-width="5"/><circle cx="120" cy="250" r="6" fill="#0a63ff" stroke="#fff" stroke-width="1.5"/><line x1="116" y1="250" x2="124" y2="250" stroke="#fff" stroke-width="1.6"/><circle cx="360" cy="250" r="6" fill="#0a63ff" stroke="#fff" stroke-width="1.5"/><line x1="356" y1="250" x2="364" y2="250" stroke="#fff" stroke-width="1.6"/><circle cx="250" cy="150" r="6" fill="#0a63ff" stroke="#fff" stroke-width="1.5"/><line x1="246" y1="150" x2="254" y2="150" stroke="#fff" stroke-width="1.6"/></g></svg>
