<svg xmlns="http://www.w3.org/2000/svg" viewBox="0 0 480 360" role="img" aria-label="A Maxxis urban slick tire on a chrome rim">
  <defs>
    <linearGradient id="bg" x1="0" y1="0" x2="1" y2="1">
      <stop offset="0" stop-color="#f7f6f0"/><stop offset="1" stop-color="#eae8dc"/>
    </linearGradient>
    <linearGradient id="chrome" x1="0" y1="0" x2="0" y2="1">
      <stop offset="0" stop-color="#f4f6f8"/><stop offset="0.35" stop-color="#c3ccd2"/>
      <stop offset="0.55" stop-color="#8b969d"/><stop offset="0.75" stop-color="#c3ccd2"/>
      <stop offset="1" stop-color="#e7ecef"/>
    </linearGradient>
  </defs>
  <rect width="480" height="360" fill="url(#bg)"/><rect x="12" y="12" width="456" height="336" fill="none" stroke="#c9c6b8" stroke-width="1.4" stroke-dasharray="2 6" rx="10"/><text x="26" y="36" font-family="Space Mono, ui-monospace, monospace" font-size="11" letter-spacing="1.5" fill="#9aa0a2">06 · TIRES</text><text x="26" y="338" font-family="Space Mono, ui-monospace, monospace" font-size="13" fill="#181a1c">Maxxis Hookworm — urban slick, 26"</text><g fill="none" stroke="#181a1c" stroke-width="3" stroke-linecap="round" stroke-linejoin="round"><circle cx="240" cy="185" r="120" stroke="#181a1c" stroke-width="11"/><circle cx="240" cy="185" r="106" stroke="url(#chrome)" stroke-width="4"/><circle cx="240" cy="185" r="4" fill="#9aa0a2" stroke="none"/><line x1="240" y1="185" x2="345.0" y2="185.0" stroke="#9aa0a2" stroke-width="1.3"/><line x1="240" y1="185" x2="330.9" y2="237.5" stroke="#9aa0a2" stroke-width="1.3"/><line x1="240" y1="185" x2="292.5" y2="275.9" stroke="#9aa0a2" stroke-width="1.3"/><line x1="240" y1="185" x2="240.0" y2="290.0" stroke="#9aa0a2" stroke-width="1.3"/><line x1="240" y1="185" x2="187.5" y2="275.9" stroke="#9aa0a2" stroke-width="1.3"/><line x1="240" y1="185" x2="149.1" y2="237.5" stroke="#9aa0a2" stroke-width="1.3"/><line x1="240" y1="185" x2="135.0" y2="185.0" stroke="#9aa0a2" stroke-width="1.3"/><line x1="240" y1="185" x2="149.1" y2="132.5" stroke="#9aa0a2" stroke-width="1.3"/><line x1="240" y1="185" x2="187.5" y2="94.1" stroke="#9aa0a2" stroke-width="1.3"/><line x1="240" y1="185" x2="240.0" y2="80.0" stroke="#9aa0a2" stroke-width="1.3"/><line x1="240" y1="185" x2="292.5" y2="94.1" stroke="#9aa0a2" stroke-width="1.3"/><line x1="240" y1="185" x2="330.9" y2="132.5" stroke="#9aa0a2" stroke-width="1.3"/><circle cx="240" cy="185" r="120" stroke="#181a1c" stroke-width="2" stroke-dasharray="1 5"/></g></svg>
